<?xml version="1.0" encoding="UTF-8"?><svg xmlns="http://www.w3.org/2000/svg" viewBox="0 0 1280 787.79"><defs><style>.c{letter-spacing:-.04em;}.d{letter-spacing:-.02em;}.e{letter-spacing:-.03em;}.f{letter-spacing:0em;}.g{letter-spacing:-.02em;}.h{letter-spacing:-.02em;}.i{letter-spacing:-.02em;}.j{letter-spacing:-.02em;}.k{letter-spacing:-.02em;}.l{letter-spacing:-.02em;}.m{letter-spacing:-.01em;}.n{letter-spacing:-.02em;}.o{fill:#cf3d49;mix-blend-mode:color-dodge;}.p{fill:#eff0d1;}.p,.q{font-family:UniversLTStd-Cn, Univers LT Std;font-size:65px;}.q{fill:#262730;}.r{letter-spacing:-.02em;}.s{letter-spacing:-.02em;}.t{letter-spacing:-.09em;}.u{letter-spacing:-.03em;}.v{isolation:isolate;}.w{letter-spacing:-.03em;}.x{letter-spacing:-.02em;}.y{letter-spacing:-.03em;}</style></defs><g class="v"><g id="a"><rect class="o" x="510.67" y="89.75" width="278.07" height="633.51"/></g><g id="b"><text class="p" transform="translate(597.99 105.73)"><tspan class="h" x="0" y="0">O</tspan><tspan class="j" x="38.28" y="0">u</tspan><tspan x="69.26" y="0">r</tspan></text><text class="q" transform="translate(675.31 182.65)"><tspan class="e" x="0" y="0">G</tspan><tspan class="g" x="37.67" y="0">a</tspan><tspan class="k" x="69.01" y="0">z</tspan><tspan x="92.71" y="0">e</tspan></text><text class="p" transform="translate(492.27 285.02)"><tspan class="t" x="0" y="0">T</tspan><tspan class="m" x="26.68" y="0">r</tspan><tspan class="u" x="47.52" y="0">a</tspan><tspan class="s" x="78.36" y="0">v</tspan><tspan class="d" x="105.78" y="0">e</tspan><tspan class="x" x="136.93" y="0">l</tspan><tspan x="150.09" y="0">s</tspan></text><text class="p" transform="translate(664.92 416.26)"><tspan class="f" x="0" y="0">T</tspan><tspan class="i" x="32.97" y="0">h</tspan><tspan x="64.01" y="0" xml:space="preserve">r  </tspan><tspan class="y" x="114.51" y="0">u</tspan><tspan class="l" x="145.32" y="0">g</tspan><tspan x="176.25" y="0">h</tspan></text><text class="q" transform="translate(568.19 693.7)"><tspan class="r" x="0" y="0">S</tspan><tspan class="n" x="34.7" y="0">p</tspan><tspan class="c" x="65.64" y="0">a</tspan><tspan class="w" x="95.48" y="0">c</tspan><tspan x="125.82" y="0">e</tspan></text></g></g></svg>