<?xml version="1.0" encoding="UTF-8"?><svg id="a" xmlns="http://www.w3.org/2000/svg" viewBox="0 0 1280 787.79"><defs><style>.b{letter-spacing:0em;}.c{letter-spacing:-.02em;}.d{letter-spacing:-.03em;}.e{letter-spacing:0em;}.f{letter-spacing:0em;}.g{letter-spacing:-.03em;}.h{letter-spacing:-.01em;}.i{fill:#262730;}.i,.j{font-family:Didot, Didot;font-size:65px;}.j{fill:#eff0d1;}.k{letter-spacing:-.02em;}.l{letter-spacing:-.01em;}.m{letter-spacing:-.01em;}.n{letter-spacing:.01em;}.o{letter-spacing:-.05em;}.p{letter-spacing:-.04em;}.q{letter-spacing:0em;}.r{letter-spacing:-.07em;}.s{letter-spacing:0em;}.t{letter-spacing:-.03em;}.u{letter-spacing:-.03em;}.v{letter-spacing:0em;}</style></defs><text class="j" transform="translate(597.99 105.73)"><tspan class="e" x="0" y="0">O</tspan><tspan class="s" x="53.49" y="0">u</tspan><tspan x="92.29" y="0">r</tspan></text><text class="i" transform="translate(657.73 182.65)"><tspan class="f" x="0" y="0">G</tspan><tspan class="n" x="51.17" y="0">a</tspan><tspan class="h" x="83.11" y="0">z</tspan><tspan x="109.91" y="0">e</tspan></text><text class="j" transform="translate(492.27 285.02)"><tspan class="r" x="0" y="0">T</tspan><tspan class="q" x="39.87" y="0">r</tspan><tspan class="g" x="66.01" y="0">a</tspan><tspan class="o" x="95.48" y="0">v</tspan><tspan class="t" x="123.81" y="0">e</tspan><tspan class="m" x="154.41" y="0">l</tspan><tspan x="172.73" y="0">s</tspan></text><text class="j" transform="translate(644.07 416.26)"><tspan class="d" x="0" y="0">T</tspan><tspan class="b" x="42.24" y="0">h</tspan><tspan x="82.17" y="0" xml:space="preserve">r  </tspan><tspan class="v" x="144.77" y="0">u</tspan><tspan class="c" x="182.82" y="0">g</tspan><tspan x="215.25" y="0">h</tspan></text><text class="i" transform="translate(568.19 693.7)"><tspan class="p" x="0" y="0">S</tspan><tspan class="k" x="40.78" y="0">p</tspan><tspan class="u" x="77.91" y="0">a</tspan><tspan class="l" x="107.48" y="0">c</tspan><tspan x="137.8" y="0">e</tspan></text></svg>